<svg xmlns="http://www.w3.org/2000/svg" version="1.1" xmlns:xlink="http://www.w3.org/1999/xlink" xmlns:svgjs="http://svgjs.dev/svgjs" width="2000" height="267" viewBox="0 0 2000 267"><g transform="matrix(1,0,0,1,-1.2121212121212466,0.020420116643947495)"><svg viewBox="0 0 396 53" data-background-color="#161618" preserveAspectRatio="xMidYMid meet" height="267" width="2000" xmlns="http://www.w3.org/2000/svg" xmlns:xlink="http://www.w3.org/1999/xlink"><g id="tight-bounds" transform="matrix(1,0,0,1,0.2400000000000091,-0.004053431393742812)"><svg viewBox="0 0 395.52 53.008106862787514" height="53.008106862787514" width="395.52"><g><svg viewBox="0 0 469.13424337748864 62.87398388437218" height="53.008106862787514" width="395.52"><g transform="matrix(1,0,0,1,0,8.689530334236679)"><svg viewBox="0 0 395.5199999999999 45.49492321589882" height="45.49492321589882" width="395.5199999999999"><g id="textblocktransform"><svg viewBox="0 0 395.5199999999999 45.49492321589882" height="45.49492321589882" width="395.5199999999999" id="textblock"><g><svg viewBox="0 0 395.5199999999999 45.49492321589882" height="45.49492321589882" width="395.5199999999999"><g transform="matrix(1,0,0,1,0,0)"><svg width="395.5199999999999" viewBox="2.4 -37.1 332.08000000000004 38.2" height="45.49492321589882" data-palette-color="#ffffff"><path d="M20.5-32.4Q22.35-30.1 24.75-26.48 27.15-22.85 28.1-21.65 29.05-20.45 29.63-20.45 30.2-20.45 30.65-21.1 31.1-21.75 33.95-26.1 36.8-30.45 38.65-32.73 40.5-35 41.6-35.05 42.7-35.1 44.45-35.1 46.2-35.1 48.55-35 50.9-34.9 51.68-33.77 52.45-32.65 52.6-30.6L52.6-30.6Q52.9-25.35 52.9-16.68 52.9-8 52.45-3L52.45-3Q52.35-1.8 51.55-0.85 50.75 0.1 49.35 0.1L49.35 0.1Q46.3 0.15 42.58 0.15 38.85 0.15 36.65 0L36.65 0Q35.85-0.05 35.23-0.63 34.6-1.2 34.55-2.15L34.55-2.15 34.25-10.4Q34.2-11.6 33.73-11.75 33.25-11.9 32.85-11.1L32.85-11.1Q30.2-6.4 26.25-0.6L26.25-0.6Q25.3 0.85 23.75 0.85 22.2 0.85 21.2-0.6L21.2-0.6Q19.45-3.1 15.25-11.2L15.25-11.2Q15-11.7 14.68-11.8 14.35-11.9 14.1-11.55 13.85-11.2 13.85-10.4L13.85-10.4 13.6-2.15Q13.55-1.2 12.75-0.63 11.95-0.05 10.9 0L10.9 0 5.95 0Q4.6-0.05 3.78-0.95 2.95-1.85 2.8-3L2.8-3Q2.4-7.45 2.4-16.82 2.4-26.2 2.65-30.6L2.65-30.6Q2.8-32.7 3.6-33.85 4.4-35 6.45-35L6.45-35Q16.95-35 17.8-34.85 18.65-34.7 20.5-32.4ZM73.6-12.5Q73.6-6.9 76.55-6.9 79.5-6.9 79.5-12.5L79.5-12.5Q79.5-15.05 78.9-16.43 78.3-17.8 76.55-17.8 74.8-17.8 74.2-16.43 73.6-15.05 73.6-12.5L73.6-12.5ZM95.2-12.5Q95.2 1.1 76.55 1.1 57.9 1.1 57.9-12.5L57.9-12.5Q57.9-18.95 62.65-22.5 67.4-26.05 76.55-26.05 85.7-26.05 90.45-22.5 95.2-18.95 95.2-12.5L95.2-12.5ZM98.2-23.6L98.2-23.6Q98.2-25.4 100.25-25.4L100.25-25.4 111.25-25.45Q112.9-25.45 113.75-24.98 114.6-24.5 115.25-23.05L115.25-23.05 119.9-14.35Q120.1-13.75 120.7-13.75 121.3-13.75 121.6-14.35L121.6-14.35 126.4-24.3Q126.8-25.2 127.5-25.35L127.5-25.35Q127.7-25.4 128.2-25.4L128.2-25.4 133.45-25.45Q134.15-25.45 134.4-24.8L134.4-24.8Q134.55-24.5 134.55-24.13 134.55-23.75 134.3-23.3L134.3-23.3Q127.5-9.3 123.15-1.6L123.15-1.6Q122.3-0.3 120.45 0.4 118.6 1.1 116.4 1.1L116.4 1.1Q111.5 1.1 109.87-1.43 108.25-3.95 106.45-7.2 104.65-10.45 102.35-14.85 100.05-19.25 98.75-21.6L98.75-21.6Q98.2-22.75 98.2-23.6ZM141.74-25.3L141.74-25.3 151.49-25.3Q153.19-25.3 153.77-24.55 154.34-23.8 154.52-21.23 154.69-18.65 154.69-11.83 154.69-5 154.39-2.2L154.39-2.2Q154.24-1.35 153.54-0.7 152.84-0.05 151.07 0.08 149.29 0.2 146.84 0.2 144.39 0.2 142.39 0.08 140.39-0.05 139.69-0.7 138.99-1.35 138.89-2.2L138.89-2.2Q138.54-5.45 138.54-12.18 138.54-18.9 138.74-21.35 138.94-23.8 139.49-24.55 140.04-25.3 141.74-25.3ZM147.14-37.1L147.14-37.1Q150.44-37.1 152.12-35.77 153.79-34.45 153.79-32.15L153.79-32.15Q153.79-26.75 146.59-26.75L146.59-26.75Q143.69-26.75 141.64-28 139.59-29.25 139.59-31.75L139.59-31.75Q139.59-37.1 147.14-37.1ZM167.59-23.93Q169.89-25.05 172.32-25.55 174.74-26.05 178.32-26.05 181.89-26.05 185.14-25.18 188.39-24.3 189.99-22.8L189.99-22.8Q192.79-20.05 192.79-16.35L192.79-16.35Q192.79-10.55 182.99-10.55L182.99-10.55Q179.54-10.55 175.84-11.2L175.84-11.2Q175.99-7.9 177.07-6.55 178.14-5.2 180.89-5.2 183.64-5.2 185.44-5.8 187.24-6.4 188.34-7.03 189.44-7.65 190.22-7.65 190.99-7.65 191.54-6.95L191.54-6.95Q192.39-6.05 192.39-4.48 192.39-2.9 191.77-2.33 191.14-1.75 189.79-1.2L189.79-1.2Q185.04 0.8 176.29 0.8L176.29 0.8Q169.04 0.8 164.37-2.68 159.69-6.15 159.69-12.05L159.69-12.05Q159.69-14.9 160.74-17.28 161.79-19.65 163.54-21.23 165.29-22.8 167.59-23.93ZM179.19-20.35L179.19-20.35Q176.14-20.35 175.89-15.4L175.89-15.4Q178.29-15.2 178.39-15.2L178.39-15.2Q181.69-15.2 181.69-17.4L181.69-17.4Q181.69-20.35 179.19-20.35ZM226.24-3.05L226.24-3.05Q226.19-1.95 225.29-1.03 224.39-0.1 222.89 0L222.89 0Q220.04 0.2 216.04 0.2 212.04 0.2 208.69 0L208.69 0Q207.19-0.1 206.29-1.03 205.39-1.95 205.34-3.05L205.34-3.05Q205.19-10.65 205.19-16.03 205.19-21.4 205.24-23.9L205.24-23.9Q205.24-25.8 203.54-25.8L203.54-25.8 199.04-25.8Q197.99-25.8 197.34-26.3 196.69-26.8 196.61-28.05 196.54-29.3 196.54-30.65 196.54-32 196.61-32.98 196.69-33.95 197.41-34.48 198.14-35 198.99-35L198.99-35Q205.49-35.1 216.59-35.1 227.69-35.1 232.49-35L232.49-35Q233.34-34.95 234.06-34.45 234.79-33.95 234.86-32.98 234.94-32 234.94-30.7 234.94-29.4 234.89-28.2L234.89-28.2Q234.74-25.95 232.44-25.95L232.44-25.95 227.94-25.95Q226.24-25.95 226.24-24.2L226.24-24.2Q226.39-17.9 226.39-12.8 226.39-7.7 226.24-3.05ZM263.84 1L263.84 1Q257.79 1 252.89-0.58 247.99-2.15 244.94-4.8 241.89-7.45 240.29-10.73 238.69-14 238.69-17.55 238.69-21.1 240.31-24.38 241.94-27.65 244.96-30.3 247.99-32.95 252.89-34.55 257.79-36.15 263.64-36.15 269.49-36.15 273.99-34.7 278.49-33.25 281.24-30.75L281.24-30.75Q286.84-25.65 286.84-18.65L286.84-18.65Q286.84-15.1 285.31-11.7 283.79-8.3 280.96-5.53 278.14-2.75 273.69-0.98 269.24 0.8 263.84 1ZM273.74-18.43Q273.74-20.8 272.04-22.58 270.34-24.35 266.86-24.35 263.39-24.35 261.34-22.5 259.29-20.65 259.29-18 259.29-15.35 261.44-13.75 263.59-12.15 266.61-12.15 269.64-12.15 271.69-14.1 273.74-16.05 273.74-18.43ZM325.73-35L325.73-35 331.08-35Q332.78-35 333.46-34.45 334.13-33.9 334.18-32.2L334.18-32.2Q334.48-24.6 334.48-15.85 334.48-7.1 334.13-3.05L334.13-3.05Q334.03-1.9 333.26-0.95 332.48 0 331.23 0L331.23 0 322.88 0Q321.13 0 319.03-1.25L319.03-1.25Q307.43-8.1 304.43-9.6L304.43-9.6Q303.83-9.85 303.46-9.43 303.08-9 303.08-7.85L303.08-7.85 303.08-2.3Q303.08-1.35 302.38-0.8L302.38-0.8Q301.33 0.05 296.98 0.05L296.98 0.05Q295.78 0.05 294.63-0.03 293.48-0.1 292.76-1.05 292.03-2 291.98-3.1L291.98-3.1Q291.83-9.1 291.83-18.18 291.83-27.25 291.88-30 291.93-32.75 292.53-33.88 293.13-35 294.83-35L294.83-35 300.33-35Q302.03-35 303.83-34.05L303.83-34.05Q319.33-26 321.93-24.7L321.93-24.7Q322.78-24.3 323.28-24.6 323.78-24.9 323.78-25.7L323.78-25.7 323.78-32.7Q323.78-33.7 324.31-34.35 324.83-35 325.73-35Z" opacity="1" transform="matrix(1,0,0,1,0,0)" fill="#ffffff" class="wordmark-text-0" data-fill-palette-color="primary" id="text-0"></path></svg></g></svg></g></svg></g></svg></g><g transform="matrix(1,0,0,1,406.26025949311645,0)"><svg viewBox="0 0 62.87398388437219 62.87398388437218" height="62.87398388437218" width="62.87398388437219"><g><svg xmlns="http://www.w3.org/2000/svg" xmlns:xlink="http://www.w3.org/1999/xlink" version="1.1" x="0" y="0" viewBox="3.7 3.7 82.60000000000001 82.6" enable-background="new 0 0 90 90" xml:space="preserve" height="62.87398388437218" width="62.87398388437219" class="icon-icon-0" data-fill-palette-color="accent" id="icon-0"><g fill="#ff4136" data-fill-palette-color="accent"><path d="M45 86.3C22.2 86.3 3.7 67.8 3.7 45S22.2 3.7 45 3.7c22.8 0 41.3 18.5 41.3 41.3 0 9.6-3.3 18.9-9.4 26.3-1.8 2.1-4.9 2.4-7 0.7-2.1-1.8-2.4-4.9-0.7-7 4.6-5.6 7.1-12.6 7.1-19.9 0-17.2-14-31.3-31.3-31.3-17.2 0-31.3 14-31.3 31.3s14 31.3 31.3 31.3c2.8 0 5 2.2 5 5S47.8 86.3 45 86.3z" fill="#ff4136" data-fill-palette-color="accent"></path><g fill="#ff4136" data-fill-palette-color="accent"><g fill="#ff4136" data-fill-palette-color="accent"><g fill="#ff4136" data-fill-palette-color="accent"><path d="M58 23.4c-2.2 0-4.4 0.8-6 2.5-3.3 3.3-3.3 8.7 0 12.1 1.7 1.7 3.8 2.5 6 2.5 2.2 0 4.4-0.8 6-2.5 3.3-3.3 3.3-8.7 0-12.1C62.4 24.3 60.2 23.4 58 23.4L58 23.4z" fill="#ff4136" data-fill-palette-color="accent"></path></g></g><g fill="#ff4136" data-fill-palette-color="accent"><g fill="#ff4136" data-fill-palette-color="accent"><path d="M32 49.5c-2.2 0-4.4 0.8-6 2.5-3.3 3.3-3.3 8.7 0 12.1 1.7 1.7 3.8 2.5 6 2.5 2.2 0 4.4-0.8 6-2.5 3.3-3.3 3.3-8.7 0-12.1C36.3 50.3 34.2 49.5 32 49.5L32 49.5z" fill="#ff4136" data-fill-palette-color="accent"></path></g></g></g><g fill="#ff4136" data-fill-palette-color="accent"><g fill="#ff4136" data-fill-palette-color="accent"><g fill="#ff4136" data-fill-palette-color="accent"><path d="M58 49.5c-2.2 0-4.4 0.8-6 2.5-3.3 3.3-3.3 8.7 0 12.1 1.7 1.7 3.8 2.5 6 2.5 2.2 0 4.4-0.8 6-2.5 3.3-3.3 3.3-8.7 0-12.1C62.4 50.3 60.2 49.5 58 49.5L58 49.5z" fill="#ff4136" data-fill-palette-color="accent"></path></g></g><g fill="#ff4136" data-fill-palette-color="accent"><g fill="#ff4136" data-fill-palette-color="accent"><path d="M32 23.4c-2.2 0-4.4 0.8-6 2.5-3.3 3.3-3.3 8.7 0 12.1 1.7 1.7 3.9 2.5 6 2.5 2.2 0 4.4-0.8 6-2.5 3.3-3.3 3.3-8.7 0-12.1C36.3 24.3 34.2 23.4 32 23.4L32 23.4z" fill="#ff4136" data-fill-palette-color="accent"></path></g></g></g><g fill="#ff4136" data-fill-palette-color="accent"><g fill="#ff4136" data-fill-palette-color="accent"><g fill="#ff4136" data-fill-palette-color="accent"><path d="M45 41.2c-1 0-1.9 0.4-2.7 1.1-1.5 1.5-1.5 3.9 0 5.4 0.7 0.7 1.7 1.1 2.7 1.1 1 0 1.9-0.4 2.7-1.1 1.5-1.5 1.5-3.9 0-5.4C46.9 41.6 46 41.2 45 41.2L45 41.2z" fill="#ff4136" data-fill-palette-color="accent"></path></g></g></g><path d="M81.3 86.3H44.6c-2.8 0-5-2.2-5-5s2.2-5 5-5h36.7c2.8 0 5 2.2 5 5S84 86.3 81.3 86.3z" fill="#ff4136" data-fill-palette-color="accent"></path></g></svg></g></svg></g></svg></g><defs></defs></svg><rect width="395.52" height="53.008106862787514" fill="none" stroke="none" visibility="hidden"></rect></g></svg></g></svg>